<svg width="24" height="24" viewBox="0 0 24 24" fill="none" xmlns="http://www.w3.org/2000/svg">
<g id="mail">
<mask id="mask0_1386_232567" style="mask-type:alpha" maskUnits="userSpaceOnUse" x="0" y="0" width="24" height="24">
<rect id="Bounding box" width="24" height="24" fill="url(#paint0_linear_1386_232567)"/>
</mask>
<g mask="url(#mask0_1386_232567)">
<path id="mail_2" d="M4 20C3.45 20 2.97933 19.8043 2.588 19.413C2.196 19.021 2 18.55 2 18V6C2 5.45 2.196 4.97933 2.588 4.588C2.97933 4.196 3.45 4 4 4H20C20.55 4 21.021 4.196 21.413 4.588C21.8043 4.97933 22 5.45 22 6V18C22 18.55 21.8043 19.021 21.413 19.413C21.021 19.8043 20.55 20 20 20H4ZM12 13L4 8V18H20V8L12 13ZM12 11L20 6H4L12 11ZM4 8V6V18V8Z" fill="url(#paint1_linear_1386_232567)"/>
</g>
</g>
<defs>
<linearGradient id="paint0_linear_1386_232567" x1="12" y1="0" x2="12" y2="24" gradientUnits="userSpaceOnUse">
<stop stop-color="#FF8383"/>
<stop offset="1" stop-color="#BD0909"/>
</linearGradient>
<linearGradient id="paint1_linear_1386_232567" x1="12" y1="4" x2="12" y2="20" gradientUnits="userSpaceOnUse">
<stop stop-color="#FF8383"/>
<stop offset="1" stop-color="#BD0909"/>
</linearGradient>
</defs>
</svg>
