<svg width="24" height="24" viewBox="0 0 24 24" fill="none" xmlns="http://www.w3.org/2000/svg">
<g id="vpn_key">
<mask id="mask0_1211_25110" style="mask-type:alpha" maskUnits="userSpaceOnUse" x="0" y="0" width="24" height="24">
<rect id="Bounding box" width="24" height="24" fill="#D9D9D9"/>
</mask>
<g mask="url(#mask0_1211_25110)">
<path id="vpn_key_2" d="M7 18C5.33333 18 3.91667 17.4167 2.75 16.25C1.58333 15.0833 1 13.6667 1 12C1 10.3333 1.58333 8.91667 2.75 7.75C3.91667 6.58333 5.33333 6 7 6C8.1 6 9.10833 6.275 10.025 6.825C10.9417 7.375 11.6667 8.1 12.2 9H23V15H21V18H15V15H12.2C11.6667 15.9 10.9417 16.625 10.025 17.175C9.10833 17.725 8.1 18 7 18ZM7 16C8.1 16 8.98333 15.6627 9.65 14.988C10.3167 14.3127 10.7167 13.65 10.85 13H17V16H19V13H21V11H10.85C10.7167 10.35 10.3167 9.68733 9.65 9.012C8.98333 8.33733 8.1 8 7 8C5.9 8 4.95833 8.39167 4.175 9.175C3.39167 9.95833 3 10.9 3 12C3 13.1 3.39167 14.0417 4.175 14.825C4.95833 15.6083 5.9 16 7 16ZM7 14C7.55 14 8.02067 13.804 8.412 13.412C8.804 13.0207 9 12.55 9 12C9 11.45 8.804 10.979 8.412 10.587C8.02067 10.1957 7.55 10 7 10C6.45 10 5.97933 10.1957 5.588 10.587C5.196 10.979 5 11.45 5 12C5 12.55 5.196 13.0207 5.588 13.412C5.97933 13.804 6.45 14 7 14Z" fill="#616161"/>
</g>
</g>
</svg>
