<svg width="14" height="12" viewBox="0 0 14 12" fill="none" xmlns="http://www.w3.org/2000/svg">
<path id="slider.horizontal.3" d="M9.52298 3.55282C10.2545 3.55282 10.8844 3.09668 11.1485 2.46614H13.3769C13.7155 2.46614 14 2.17099 14 1.81547C14 1.45995 13.7155 1.17151 13.3769 1.17151H11.1485C10.8911 0.534262 10.2612 0.078125 9.52298 0.078125C8.78471 0.078125 8.15481 0.534262 7.89744 1.17151H0.643445C0.28447 1.17151 0 1.45995 0 1.81547C0 2.17099 0.28447 2.46614 0.643445 2.46614H7.89744C8.16159 3.09668 8.79148 3.55282 9.52298 3.55282ZM9.52298 2.64054C9.05564 2.64054 8.68989 2.27161 8.68989 1.81547C8.68989 1.34592 9.05564 0.983692 9.52298 0.983692C9.9971 0.983692 10.3561 1.34592 10.3561 1.81547C10.3561 2.27161 9.9971 2.64054 9.52298 2.64054ZM0.623125 5.35724C0.28447 5.35724 0 5.64568 0 6.0012C0 6.35001 0.28447 6.64516 0.623125 6.64516H2.92598C3.19013 7.28912 3.82003 7.73855 4.5583 7.73855C5.28979 7.73855 5.91969 7.28912 6.18384 6.64516H13.3566C13.7155 6.64516 14 6.35672 14 6.0012C14 5.64568 13.7155 5.35724 13.3566 5.35724H6.18384C5.91969 4.71999 5.28979 4.27056 4.5583 4.27056C3.82003 4.27056 3.19013 4.71999 2.92598 5.35724H0.623125ZM4.5583 6.83298C4.09095 6.83298 3.71843 6.46405 3.71843 6.0012C3.71843 5.53165 4.09095 5.17613 4.5583 5.17613C5.02564 5.17613 5.39139 5.53165 5.39139 6.0012C5.39139 6.46405 5.02564 6.83298 4.5583 6.83298ZM9.52298 11.9243C10.2612 11.9243 10.8911 11.4681 11.1485 10.8309H13.3769C13.7155 10.8309 14 10.5425 14 10.1869C14 9.82471 13.7155 9.54298 13.3769 9.54298H11.1485C10.8911 8.90572 10.2612 8.44959 9.52298 8.44959C8.79148 8.44959 8.15481 8.90572 7.89744 9.54298H0.643445C0.28447 9.54298 0 9.83141 0 10.1869C0 10.5357 0.28447 10.8309 0.643445 10.8309H7.89744C8.15481 11.4681 8.78471 11.9243 9.52298 11.9243ZM9.52298 11.012C9.05564 11.012 8.68989 10.6431 8.68989 10.1869C8.68989 9.71738 9.05564 9.36186 9.52298 9.36186C9.9971 9.36186 10.3561 9.71738 10.3561 10.1869C10.3561 10.6431 9.9971 11.012 9.52298 11.012Z" fill="#C8C8C8"/>
</svg>
