<svg width="16" height="16" viewBox="0 0 16 16" fill="none" xmlns="http://www.w3.org/2000/svg">
<g id="vuesax/bulk/search-status">
<g id="search-status">
<path id="Vector" opacity="0.4" d="M7.33284 13.3415C10.6502 13.3415 13.3395 10.6522 13.3395 7.33479C13.3395 4.0174 10.6502 1.32812 7.33284 1.32812C4.01545 1.32812 1.32617 4.0174 1.32617 7.33479C1.32617 10.6522 4.01545 13.3415 7.33284 13.3415Z" fill="#C8C8C8"/>
<path id="Vector_2" d="M9.33398 6.83203H5.33398C5.06065 6.83203 4.83398 6.60536 4.83398 6.33203C4.83398 6.0587 5.06065 5.83203 5.33398 5.83203H9.33398C9.60732 5.83203 9.83398 6.0587 9.83398 6.33203C9.83398 6.60536 9.60732 6.83203 9.33398 6.83203Z" fill="#C8C8C8"/>
<path id="Vector_3" d="M7.33398 8.83203H5.33398C5.06065 8.83203 4.83398 8.60536 4.83398 8.33203C4.83398 8.0587 5.06065 7.83203 5.33398 7.83203H7.33398C7.60732 7.83203 7.83398 8.0587 7.83398 8.33203C7.83398 8.60536 7.60732 8.83203 7.33398 8.83203Z" fill="#C8C8C8"/>
<path id="Vector_4" d="M14.6594 12.6333C14.4394 12.2267 13.9727 12 13.346 12C12.8727 12 12.466 12.1933 12.226 12.5267C11.986 12.86 11.9327 13.3067 12.0794 13.7533C12.366 14.62 12.866 14.8133 13.1394 14.8467C13.1794 14.8533 13.2194 14.8533 13.266 14.8533C13.5594 14.8533 14.0127 14.7267 14.4527 14.0667C14.806 13.5533 14.8727 13.04 14.6594 12.6333Z" fill="#C8C8C8"/>
</g>
</g>
</svg>
