<svg width="178" height="179" viewBox="0 0 178 179" fill="none" xmlns="http://www.w3.org/2000/svg">
<g filter="url(#filter0_d_1649_17315)">
<path d="M89.2029 21L20.5996 87.6244V156.911L87.5845 109.057L157.401 158V88.0109L89.2029 21ZM90.5798 64.2088L142.582 86.0372H90.5798V64.2088ZM90.5798 59.5936V28.5524L145.744 82.7515L90.5798 59.5936ZM86.2642 57.7809L66.3043 49.4056L86.2731 30.0195L86.2642 57.7809ZM86.2642 62.3961V86.0372H28.5782L62.9871 52.6269L86.2642 62.3961ZM83.4685 90.2804L25.0702 145.598V90.2804H83.4685ZM85.8708 93.9175L85.1823 105.373L38.7563 138.523L85.8708 93.9175ZM90.246 93.1005L139.14 139.812L89.5247 105.045L90.246 93.1005ZM93.5066 90.2951H152.945V147.106L93.5066 90.2951Z" fill="white"/>
<path d="M89.2029 21L20.5996 87.6244V156.911L87.5845 109.057L157.401 158V88.0109L89.2029 21ZM90.5798 64.2088L142.582 86.0372H90.5798V64.2088ZM90.5798 59.5936V28.5524L145.744 82.7515L90.5798 59.5936ZM86.2642 57.7809L66.3043 49.4056L86.2731 30.0195L86.2642 57.7809ZM86.2642 62.3961V86.0372H28.5782L62.9871 52.6269L86.2642 62.3961ZM83.4685 90.2804L25.0702 145.598V90.2804H83.4685ZM85.8708 93.9175L85.1823 105.373L38.7563 138.523L85.8708 93.9175ZM90.246 93.1005L139.14 139.812L89.5247 105.045L90.246 93.1005ZM93.5066 90.2951H152.945V147.106L93.5066 90.2951Z" fill="black" fill-opacity="0.3"/>
<path d="M89.2729 20.9287L89.2033 20.8602L89.1332 20.9283L20.5299 87.5526L20.4996 87.5821V87.6244V156.911V157.105L20.6577 156.992L87.585 109.18L157.343 158.082L157.501 158.192V158V88.0109V87.969L157.471 87.9396L89.2729 20.9287ZM90.6798 64.3592L142.086 85.9372H90.6798V64.3592ZM145.302 82.4575L90.6798 59.5271V28.7908L145.302 82.4575ZM86.1642 57.6305L66.4825 49.372L86.173 30.256L86.1642 57.6305ZM63.0093 52.7447L86.1642 62.4625V85.9372H28.8247L63.0093 52.7447ZM83.2176 90.3804L25.1702 145.366V90.3804H83.2176ZM85.0853 105.32L39.876 137.601L85.7557 94.1641L85.0853 105.32ZM89.6279 104.996L90.3328 93.3217L138.117 138.973L89.6279 104.996ZM152.845 146.872L93.7559 90.3951H152.845V146.872Z" stroke="#00ACC1" stroke-width="0.2"/>
</g>
<defs>
<filter id="filter0_d_1649_17315" x="0.399414" y="0.720459" width="177.201" height="177.664" filterUnits="userSpaceOnUse" color-interpolation-filters="sRGB">
<feFlood flood-opacity="0" result="BackgroundImageFix"/>
<feColorMatrix in="SourceAlpha" type="matrix" values="0 0 0 0 0 0 0 0 0 0 0 0 0 0 0 0 0 0 127 0" result="hardAlpha"/>
<feOffset/>
<feGaussianBlur stdDeviation="10"/>
<feComposite in2="hardAlpha" operator="out"/>
<feColorMatrix type="matrix" values="0 0 0 0 0.360784 0 0 0 0 0.85098 0 0 0 0 0.937255 0 0 0 0.7 0"/>
<feBlend mode="normal" in2="BackgroundImageFix" result="effect1_dropShadow_1649_17315"/>
<feBlend mode="normal" in="SourceGraphic" in2="effect1_dropShadow_1649_17315" result="shape"/>
</filter>
</defs>
</svg>
